<?xml version="1.0" encoding="UTF-8" standalone="no"?>
<!DOCTYPE svg PUBLIC "-//W3C//DTD SVG 1.1//EN"
 "http://www.w3.org/Graphics/SVG/1.1/DTD/svg11.dtd">
<!-- Generated by graphviz version 2.47.0 (20210316.0004)
 -->
<!-- Title: dependencies Pages: 1 -->
<svg width="985pt" height="284pt"
 viewBox="0.00 0.00 985.00 284.00" xmlns="http://www.w3.org/2000/svg" xmlns:xlink="http://www.w3.org/1999/xlink">
<g id="graph0" class="graph" transform="scale(1 1) rotate(0) translate(4 280)">
<title>dependencies</title>
<polygon fill="white" stroke="transparent" points="-4,4 -4,-280 981,-280 981,4 -4,4"/>
<text text-anchor="start" x="467.51" y="-42.4" font-family="sans-serif" font-weight="bold" font-size="14.00">Legend</text>
<polygon fill="#ffffb3" stroke="transparent" points="254.5,-10 254.5,-30 274.5,-30 274.5,-10 254.5,-10"/>
<text text-anchor="start" x="278.13" y="-15.4" font-family="sans-serif" font-size="14.00"> &#160;Declarations</text>
<polygon fill="#8dd3c7" stroke="transparent" points="367.5,-10 367.5,-30 387.5,-30 387.5,-10 367.5,-10"/>
<text text-anchor="start" x="391.23" y="-15.4" font-family="sans-serif" font-size="14.00"> &#160;Module</text>
<polygon fill="#80b1d3" stroke="transparent" points="453.5,-10 453.5,-30 473.5,-30 473.5,-10 453.5,-10"/>
<text text-anchor="start" x="477.28" y="-15.4" font-family="sans-serif" font-size="14.00"> &#160;Bootstrap</text>
<polygon fill="#fdb462" stroke="transparent" points="550.5,-10 550.5,-30 570.5,-30 570.5,-10 550.5,-10"/>
<text text-anchor="start" x="574.17" y="-15.4" font-family="sans-serif" font-size="14.00"> &#160;Providers</text>
<polygon fill="#fb8072" stroke="transparent" points="646.5,-10 646.5,-30 666.5,-30 666.5,-10 646.5,-10"/>
<text text-anchor="start" x="670.23" y="-15.4" font-family="sans-serif" font-size="14.00"> &#160;Exports</text>
<g id="clust1" class="cluster">
<title>cluster_AppModule</title>
<polygon fill="none" stroke="black" stroke-dasharray="1,5" points="8,-70 8,-268 969,-268 969,-70 8,-70"/>
</g>
<g id="clust10" class="cluster">
<title>cluster_AppModule_bootstrap</title>
<polygon fill="none" stroke="black" points="424,-208 424,-260 548,-260 548,-208 424,-208"/>
</g>
<g id="clust8" class="cluster">
<title>cluster_AppModule_imports</title>
<polygon fill="none" stroke="black" points="692,-78 692,-130 961,-130 961,-78 692,-78"/>
</g>
<g id="clust2" class="cluster">
<title>cluster_AppModule_declarations</title>
<polygon fill="none" stroke="black" points="16,-78 16,-130 684,-130 684,-78 16,-78"/>
</g>
<!-- AppComponent -->
<g id="node1" class="node">
<title>AppComponent</title>
<polygon fill="#ffffb3" stroke="black" points="675.94,-122 570.06,-122 570.06,-86 675.94,-86 675.94,-122"/>
<text text-anchor="middle" x="623" y="-99.8" font-family="Times,serif" font-size="14.00">AppComponent</text>
</g>
<!-- AppModule -->
<g id="node6" class="node">
<title>AppModule</title>
<polygon fill="#8dd3c7" stroke="black" points="527.66,-187 524.66,-191 503.66,-191 500.66,-187 444.34,-187 444.34,-151 527.66,-151 527.66,-187"/>
<text text-anchor="middle" x="486" y="-164.8" font-family="Times,serif" font-size="14.00">AppModule</text>
</g>
<!-- AppComponent&#45;&gt;AppModule -->
<g id="edge1" class="edge">
<title>AppComponent&#45;&gt;AppModule</title>
<path fill="none" stroke="black" d="M623,-122.03C623,-138.4 623,-160 623,-160 623,-160 537.85,-160 537.85,-160"/>
<polygon fill="black" stroke="black" points="537.85,-156.5 527.85,-160 537.85,-163.5 537.85,-156.5"/>
</g>
<!-- Error404Component -->
<g id="node2" class="node">
<title>Error404Component</title>
<polygon fill="#ffffb3" stroke="black" points="551.87,-122 420.13,-122 420.13,-86 551.87,-86 551.87,-122"/>
<text text-anchor="middle" x="486" y="-99.8" font-family="Times,serif" font-size="14.00">Error404Component</text>
</g>
<!-- Error404Component&#45;&gt;AppModule -->
<g id="edge2" class="edge">
<title>Error404Component&#45;&gt;AppModule</title>
<path fill="none" stroke="black" d="M486,-122.11C486,-122.11 486,-140.99 486,-140.99"/>
<polygon fill="black" stroke="black" points="482.5,-140.99 486,-150.99 489.5,-140.99 482.5,-140.99"/>
</g>
<!-- FiltroHotelesPipe -->
<g id="node3" class="node">
<title>FiltroHotelesPipe</title>
<polygon fill="#ffffb3" stroke="black" points="402.26,-122 287.74,-122 287.74,-86 402.26,-86 402.26,-122"/>
<text text-anchor="middle" x="345" y="-99.8" font-family="Times,serif" font-size="14.00">FiltroHotelesPipe</text>
</g>
<!-- FiltroHotelesPipe&#45;&gt;AppModule -->
<g id="edge3" class="edge">
<title>FiltroHotelesPipe&#45;&gt;AppModule</title>
<path fill="none" stroke="black" d="M345,-122.03C345,-138.4 345,-160 345,-160 345,-160 434.08,-160 434.08,-160"/>
<polygon fill="black" stroke="black" points="434.08,-163.5 444.08,-160 434.08,-156.5 434.08,-163.5"/>
</g>
<!-- InicioComponent -->
<g id="node4" class="node">
<title>InicioComponent</title>
<polygon fill="#ffffb3" stroke="black" points="269.99,-122 156.01,-122 156.01,-86 269.99,-86 269.99,-122"/>
<text text-anchor="middle" x="213" y="-99.8" font-family="Times,serif" font-size="14.00">InicioComponent</text>
</g>
<!-- InicioComponent&#45;&gt;AppModule -->
<g id="edge4" class="edge">
<title>InicioComponent&#45;&gt;AppModule</title>
<path fill="none" stroke="black" d="M213,-122.11C213,-141.34 213,-169 213,-169 213,-169 434.24,-169 434.24,-169"/>
<polygon fill="black" stroke="black" points="434.24,-172.5 444.24,-169 434.24,-165.5 434.24,-172.5"/>
</g>
<!-- LoginComponent -->
<g id="node5" class="node">
<title>LoginComponent</title>
<polygon fill="#ffffb3" stroke="black" points="138.28,-122 23.72,-122 23.72,-86 138.28,-86 138.28,-122"/>
<text text-anchor="middle" x="81" y="-99.8" font-family="Times,serif" font-size="14.00">LoginComponent</text>
</g>
<!-- LoginComponent&#45;&gt;AppModule -->
<g id="edge5" class="edge">
<title>LoginComponent&#45;&gt;AppModule</title>
<path fill="none" stroke="black" d="M81,-122.29C81,-144.21 81,-178 81,-178 81,-178 434.18,-178 434.18,-178"/>
<polygon fill="black" stroke="black" points="434.18,-181.5 444.18,-178 434.18,-174.5 434.18,-181.5"/>
</g>
<!-- AppComponent  -->
<g id="node9" class="node">
<title>AppComponent </title>
<polygon fill="#80b1d3" stroke="black" points="540.44,-252 431.56,-252 431.56,-216 540.44,-216 540.44,-252"/>
<text text-anchor="middle" x="486" y="-229.8" font-family="Times,serif" font-size="14.00">AppComponent </text>
</g>
<!-- AppModule&#45;&gt;AppComponent  -->
<g id="edge8" class="edge">
<title>AppModule&#45;&gt;AppComponent </title>
<path fill="none" stroke="black" stroke-dasharray="1,5" d="M486,-187.11C486,-187.11 486,-205.99 486,-205.99"/>
<polygon fill="black" stroke="black" points="482.5,-205.99 486,-215.99 489.5,-205.99 482.5,-205.99"/>
</g>
<!-- AppRoutingModule -->
<g id="node7" class="node">
<title>AppRoutingModule</title>
<polygon fill="#8dd3c7" stroke="black" points="953.27,-122 950.27,-126 929.27,-126 926.27,-122 824.73,-122 824.73,-86 953.27,-86 953.27,-122"/>
<text text-anchor="middle" x="889" y="-99.8" font-family="Times,serif" font-size="14.00">AppRoutingModule</text>
</g>
<!-- AppRoutingModule&#45;&gt;AppModule -->
<g id="edge6" class="edge">
<title>AppRoutingModule&#45;&gt;AppModule</title>
<path fill="none" stroke="black" d="M889,-122.29C889,-144.21 889,-178 889,-178 889,-178 537.99,-178 537.99,-178"/>
<polygon fill="black" stroke="black" points="537.99,-174.5 527.99,-178 537.99,-181.5 537.99,-174.5"/>
</g>
<!-- MaterialModule -->
<g id="node8" class="node">
<title>MaterialModule</title>
<polygon fill="#8dd3c7" stroke="black" points="806.47,-122 803.47,-126 782.47,-126 779.47,-122 699.53,-122 699.53,-86 806.47,-86 806.47,-122"/>
<text text-anchor="middle" x="753" y="-99.8" font-family="Times,serif" font-size="14.00">MaterialModule</text>
</g>
<!-- MaterialModule&#45;&gt;AppModule -->
<g id="edge7" class="edge">
<title>MaterialModule&#45;&gt;AppModule</title>
<path fill="none" stroke="black" d="M753,-122.11C753,-141.34 753,-169 753,-169 753,-169 537.72,-169 537.72,-169"/>
<polygon fill="black" stroke="black" points="537.72,-165.5 527.72,-169 537.72,-172.5 537.72,-165.5"/>
</g>
</g>
</svg>
