<?xml version="1.0" encoding="UTF-8" standalone="no"?>
<!DOCTYPE svg PUBLIC "-//W3C//DTD SVG 1.1//EN"
 "http://www.w3.org/Graphics/SVG/1.1/DTD/svg11.dtd">
<!-- Generated by graphviz version 2.47.0 (20210316.0004)
 -->
<!-- Title: dependencies Pages: 1 -->
<svg width="985pt" height="284pt"
 viewBox="0.00 0.00 985.00 284.00" xmlns="http://www.w3.org/2000/svg" xmlns:xlink="http://www.w3.org/1999/xlink">
<g id="graph0" class="graph" transform="scale(1 1) rotate(0) translate(4 280)">
<title>dependencies</title>
<polygon fill="white" stroke="transparent" points="-4,4 -4,-280 981,-280 981,4 -4,4"/>
<text text-anchor="start" x="467.51" y="-42.4" font-family="sans-serif" font-weight="bold" font-size="14.00">Legend</text>
<polygon fill="#ffffb3" stroke="transparent" points="254.5,-10 254.5,-30 274.5,-30 274.5,-10 254.5,-10"/>
<text text-anchor="start" x="278.13" y="-15.4" font-family="sans-serif" font-size="14.00"> &#160;Declarations</text>
<polygon fill="#8dd3c7" stroke="transparent" points="367.5,-10 367.5,-30 387.5,-30 387.5,-10 367.5,-10"/>
<text text-anchor="start" x="391.23" y="-15.4" font-family="sans-serif" font-size="14.00"> &#160;Module</text>
<polygon fill="#80b1d3" stroke="transparent" points="453.5,-10 453.5,-30 473.5,-30 473.5,-10 453.5,-10"/>
<text text-anchor="start" x="477.28" y="-15.4" font-family="sans-serif" font-size="14.00"> &#160;Bootstrap</text>
<polygon fill="#fdb462" stroke="transparent" points="550.5,-10 550.5,-30 570.5,-30 570.5,-10 550.5,-10"/>
<text text-anchor="start" x="574.17" y="-15.4" font-family="sans-serif" font-size="14.00"> &#160;Providers</text>
<polygon fill="#fb8072" stroke="transparent" points="646.5,-10 646.5,-30 666.5,-30 666.5,-10 646.5,-10"/>
<text text-anchor="start" x="670.23" y="-15.4" font-family="sans-serif" font-size="14.00"> &#160;Exports</text>
<g id="clust1" class="cluster">
<title>cluster_AppModule</title>
<polygon fill="none" stroke="black" stroke-dasharray="1,5" points="8,-70 8,-268 969,-268 969,-70 8,-70"/>
</g>
<g id="clust2" class="cluster">
<title>cluster_AppModule_declarations</title>
<polygon fill="none" stroke="black" points="293,-78 293,-130 961,-130 961,-78 293,-78"/>
</g>
<g id="clust8" class="cluster">
<title>cluster_AppModule_imports</title>
<polygon fill="none" stroke="black" points="16,-78 16,-130 285,-130 285,-78 16,-78"/>
</g>
<g id="clust10" class="cluster">
<title>cluster_AppModule_bootstrap</title>
<polygon fill="none" stroke="black" points="428,-208 428,-260 552,-260 552,-208 428,-208"/>
</g>
<!-- AppComponent -->
<g id="node1" class="node">
<title>AppComponent</title>
<polygon fill="#ffffb3" stroke="black" points="952.94,-122 847.06,-122 847.06,-86 952.94,-86 952.94,-122"/>
<text text-anchor="middle" x="900" y="-99.8" font-family="Times,serif" font-size="14.00">AppComponent</text>
</g>
<!-- AppModule -->
<g id="node6" class="node">
<title>AppModule</title>
<polygon fill="#8dd3c7" stroke="black" points="531.66,-187 528.66,-191 507.66,-191 504.66,-187 448.34,-187 448.34,-151 531.66,-151 531.66,-187"/>
<text text-anchor="middle" x="490" y="-164.8" font-family="Times,serif" font-size="14.00">AppModule</text>
</g>
<!-- AppComponent&#45;&gt;AppModule -->
<g id="edge1" class="edge">
<title>AppComponent&#45;&gt;AppModule</title>
<path fill="none" stroke="black" d="M900,-122.29C900,-144.21 900,-178 900,-178 900,-178 541.95,-178 541.95,-178"/>
<polygon fill="black" stroke="black" points="541.95,-174.5 531.95,-178 541.95,-181.5 541.95,-174.5"/>
</g>
<!-- Error404Component -->
<g id="node2" class="node">
<title>Error404Component</title>
<polygon fill="#ffffb3" stroke="black" points="828.87,-122 697.13,-122 697.13,-86 828.87,-86 828.87,-122"/>
<text text-anchor="middle" x="763" y="-99.8" font-family="Times,serif" font-size="14.00">Error404Component</text>
</g>
<!-- Error404Component&#45;&gt;AppModule -->
<g id="edge2" class="edge">
<title>Error404Component&#45;&gt;AppModule</title>
<path fill="none" stroke="black" d="M763,-122.11C763,-141.34 763,-169 763,-169 763,-169 541.76,-169 541.76,-169"/>
<polygon fill="black" stroke="black" points="541.76,-165.5 531.76,-169 541.76,-172.5 541.76,-165.5"/>
</g>
<!-- FiltroHotelesPipe -->
<g id="node3" class="node">
<title>FiltroHotelesPipe</title>
<polygon fill="#ffffb3" stroke="black" points="679.26,-122 564.74,-122 564.74,-86 679.26,-86 679.26,-122"/>
<text text-anchor="middle" x="622" y="-99.8" font-family="Times,serif" font-size="14.00">FiltroHotelesPipe</text>
</g>
<!-- FiltroHotelesPipe&#45;&gt;AppModule -->
<g id="edge3" class="edge">
<title>FiltroHotelesPipe&#45;&gt;AppModule</title>
<path fill="none" stroke="black" d="M622,-122.03C622,-138.4 622,-160 622,-160 622,-160 541.77,-160 541.77,-160"/>
<polygon fill="black" stroke="black" points="541.77,-156.5 531.77,-160 541.77,-163.5 541.77,-156.5"/>
</g>
<!-- InicioComponent -->
<g id="node4" class="node">
<title>InicioComponent</title>
<polygon fill="#ffffb3" stroke="black" points="546.99,-122 433.01,-122 433.01,-86 546.99,-86 546.99,-122"/>
<text text-anchor="middle" x="490" y="-99.8" font-family="Times,serif" font-size="14.00">InicioComponent</text>
</g>
<!-- InicioComponent&#45;&gt;AppModule -->
<g id="edge4" class="edge">
<title>InicioComponent&#45;&gt;AppModule</title>
<path fill="none" stroke="black" d="M490,-122.11C490,-122.11 490,-140.99 490,-140.99"/>
<polygon fill="black" stroke="black" points="486.5,-140.99 490,-150.99 493.5,-140.99 486.5,-140.99"/>
</g>
<!-- LoginComponent -->
<g id="node5" class="node">
<title>LoginComponent</title>
<polygon fill="#ffffb3" stroke="black" points="415.28,-122 300.72,-122 300.72,-86 415.28,-86 415.28,-122"/>
<text text-anchor="middle" x="358" y="-99.8" font-family="Times,serif" font-size="14.00">LoginComponent</text>
</g>
<!-- LoginComponent&#45;&gt;AppModule -->
<g id="edge5" class="edge">
<title>LoginComponent&#45;&gt;AppModule</title>
<path fill="none" stroke="black" d="M358,-122.03C358,-138.4 358,-160 358,-160 358,-160 438.23,-160 438.23,-160"/>
<polygon fill="black" stroke="black" points="438.23,-163.5 448.23,-160 438.23,-156.5 438.23,-163.5"/>
</g>
<!-- AppComponent  -->
<g id="node9" class="node">
<title>AppComponent </title>
<polygon fill="#80b1d3" stroke="black" points="544.44,-252 435.56,-252 435.56,-216 544.44,-216 544.44,-252"/>
<text text-anchor="middle" x="490" y="-229.8" font-family="Times,serif" font-size="14.00">AppComponent </text>
</g>
<!-- AppModule&#45;&gt;AppComponent  -->
<g id="edge8" class="edge">
<title>AppModule&#45;&gt;AppComponent </title>
<path fill="none" stroke="black" stroke-dasharray="1,5" d="M490,-187.11C490,-187.11 490,-205.99 490,-205.99"/>
<polygon fill="black" stroke="black" points="486.5,-205.99 490,-215.99 493.5,-205.99 486.5,-205.99"/>
</g>
<!-- AppRoutingModule -->
<g id="node7" class="node">
<title>AppRoutingModule</title>
<polygon fill="#8dd3c7" stroke="black" points="277.27,-122 274.27,-126 253.27,-126 250.27,-122 148.73,-122 148.73,-86 277.27,-86 277.27,-122"/>
<text text-anchor="middle" x="213" y="-99.8" font-family="Times,serif" font-size="14.00">AppRoutingModule</text>
</g>
<!-- AppRoutingModule&#45;&gt;AppModule -->
<g id="edge6" class="edge">
<title>AppRoutingModule&#45;&gt;AppModule</title>
<path fill="none" stroke="black" d="M213,-122.11C213,-141.34 213,-169 213,-169 213,-169 438.23,-169 438.23,-169"/>
<polygon fill="black" stroke="black" points="438.23,-172.5 448.23,-169 438.23,-165.5 438.23,-172.5"/>
</g>
<!-- MaterialModule -->
<g id="node8" class="node">
<title>MaterialModule</title>
<polygon fill="#8dd3c7" stroke="black" points="130.47,-122 127.47,-126 106.47,-126 103.47,-122 23.53,-122 23.53,-86 130.47,-86 130.47,-122"/>
<text text-anchor="middle" x="77" y="-99.8" font-family="Times,serif" font-size="14.00">MaterialModule</text>
</g>
<!-- MaterialModule&#45;&gt;AppModule -->
<g id="edge7" class="edge">
<title>MaterialModule&#45;&gt;AppModule</title>
<path fill="none" stroke="black" d="M77,-122.29C77,-144.21 77,-178 77,-178 77,-178 438.13,-178 438.13,-178"/>
<polygon fill="black" stroke="black" points="438.13,-181.5 448.13,-178 438.13,-174.5 438.13,-181.5"/>
</g>
</g>
</svg>
